<?xml version="1.0" encoding="UTF-8"?>
<svg xmlns="http://www.w3.org/2000/svg" height="24" viewBox="0 0 24 24" width="24" fill="#000000">
  <path d="M0 0h24v24H0z" fill="none"/>
  <path d="M12 2c-1.1 0-2 .9-2 2s.9 2 2 2 2-.9 2-2-.9-2-2-2zm-1.5 9.5c0 .28.22.5.5.5h2c.28 0 .5-.22.5-.5V11h2v2c0 .55-.45 1-1 1h-1.5v5.5c0 .83-.67 1.5-1.5 1.5s-1.5-.67-1.5-1.5V14H9c-.55 0-1-.45-1-1v-2h2.5v.5z"/>
  <path d="M7 8.53v2.02c-1.43.2-2.53 1.43-2.53 2.95 0 1.66 1.34 3 3 3h1.22l.04 2c0 .27.22.5.5.5s.5-.23.5-.5v-2h1v4.61c0 .45.54.67.85.35l2.79-2.79c.2-.2.2-.51 0-.71l-2.79-2.79c-.31-.31-.85-.09-.85.36V18h-1c-1.66 0-3-1.34-3-3 0-1.11.61-2.06 1.5-2.58v-2.16C8.08 9.43 8 8.75 8 8c0-3.31 2.69-6 6-6s6 2.69 6 6v2h-2V8c0-2.21-1.79-4-4-4S10 5.79 10 8c0 .19.02.35.04.49.27 1.54 1.62 2.28 3.46 2.28 1.38 0 2.47-.5 3.09-1.44.21-.32.64-.42.97-.21.32.21.42.64.21.97-.9 1.36-2.56 2.18-4.96 2.18-2.01 0-3.6-.81-4.37-2.28-.46-.83-.67-1.79-.61-2.76.08-1.22.67-2.34 1.59-3.13C10.25 3.48 11.42 3 12.62 3c2.21 0 4 1.79 4 4h2c0-3.31-2.69-6-6-6S6 3.69 6 7c0 .55.08 1.09.23 1.59C6.79 8.84 7 9.38 7 10c0 .82-.67 1.5-1.5 1.5H4c-.55 0-1 .45-1 1s.45 1 1 1h1.5c.83 0 1.5-.68 1.5-1.5z"/>
</svg>
